<?xml version="1.0" encoding="UTF-8"?>
<svg id="Layer_1" data-name="Layer 1" xmlns="http://www.w3.org/2000/svg" viewBox="0 0 250 150">
  <defs>
    <style>
      .cls-1 {
        fill: #fbfbfa;
      }

      .cls-2 {
        fill: #fff;
      }

      .cls-3 {
        fill: #6b66d5;
      }

      .cls-4 {
        fill: #00464a;
      }

      .cls-5 {
        fill: none;
        stroke: #00464a;
        stroke-miterlimit: 10;
        stroke-width: 6px;
      }
    </style>
  </defs>
  <g>
    <rect class="cls-1" x="51.44" y="17.36" width="144.77" height="84.85" rx="6.59" ry="6.59"/>
    <path class="cls-4" d="M188.23,104.56H61.77c-6.99,0-12.68-5.69-12.68-12.68V25.35c0-6.99,5.69-12.68,12.68-12.68h126.45c6.99,0,12.68,5.69,12.68,12.68V91.88c0,6.99-5.69,12.68-12.68,12.68ZM61.77,17.36c-4.4,0-7.98,3.58-7.98,7.98V91.88c0,4.4,3.58,7.98,7.98,7.98h126.45c4.4,0,7.98-3.58,7.98-7.98V25.35c0-4.4-3.58-7.98-7.98-7.98H61.77Z"/>
  </g>
  <circle class="cls-3" cx="125.38" cy="57.91" r="12.11"/>
  <circle class="cls-2" cx="130.82" cy="51.96" r="4.2"/>
  <path class="cls-3" d="M137.46,39.31l18.37,18.37-19.27,19.27s12.97,2.17,37.86-19.72c0,0-21.44-18.44-36.96-17.92Z"/>
  <path class="cls-3" d="M114.05,77.52l-19.12-19.12,20.05-20.05s-13.5-2.26-39.4,20.52c0,0,22.32,19.19,38.47,18.65Z"/>
  <path class="cls-3" d="M173.87,51.42c-.4,0-.8-.15-1.11-.46-19.23-19.23-41.09-25.11-65-17.47-17.97,5.74-30.42,17.38-30.55,17.5-.63,.59-1.62,.57-2.22-.06-.59-.63-.57-1.62,.06-2.21,.51-.49,51.88-48.01,99.92,.03,.61,.61,.61,1.6,0,2.22-.31,.31-.71,.46-1.11,.46Z"/>
  <g>
    <path class="cls-3" d="M203.91,108.5c0,6.24,4.59,11.44,10.6,12.36,.56,.09,.99,.54,.99,1.11v2.34c0,.62-.5,1.12-1.12,1.12H51.45c-4.67,0-8.92-1.9-11.99-4.97-3.35-3.33-5.3-8.09-4.92-13.26,.66-8.93,8.47-15.65,17.43-15.65H214.38c.62,0,1.12,.5,1.12,1.12v2.34c0,.57-.43,1.03-.99,1.11-6.01,.92-10.6,6.1-10.6,12.36Z"/>
    <path class="cls-5" d="M203.91,108.5c0,6.24,4.59,11.44,10.6,12.36,.56,.09,.99,.54,.99,1.11v2.34c0,.62-.5,1.12-1.12,1.12H51.45c-4.67,0-8.92-1.9-11.99-4.97-3.35-3.33-5.3-8.09-4.92-13.26,.66-8.93,8.47-15.65,17.43-15.65H214.38c.62,0,1.12,.5,1.12,1.12v2.34c0,.57-.43,1.03-.99,1.11-6.01,.92-10.6,6.1-10.6,12.36Z"/>
  </g>
  <path class="cls-4" d="M203.21,112.41H62.92c-2.16,0-3.92-1.75-3.92-3.92s1.75-3.92,3.92-3.92H203.21c2.16,0,1.44,1.75,1.44,3.92s.72,3.92-1.44,3.92Z"/>
  <polygon class="cls-2" points="114.51 112.54 132.18 112.54 132.18 128.72 123.1 128.72 114.27 128.61 114.51 112.54"/>
  <polygon class="cls-4" points="115.76 108.5 131.05 108.5 131.05 137.34 123.2 129.48 115.55 137.13 115.76 108.5"/>
</svg>